<svg xmlns="http://www.w3.org/2000/svg" width="519" height="96" viewBox="0 0 519 96" fill="none"><path d="M81.3507 11.3267C82.7758 9.11984 84.7729 7.67956 86.9829 6.61895C88.7204 5.7852 90.61 5.2325 92.4766 4.71414C94.2695 4.21607 96.0658 4.53646 97.7667 5.24361C97.9912 5.33672 98.1609 5.79396 98.1859 6.09665C98.5063 9.95842 97.6322 13.5531 95.3005 16.6416C93.0986 19.5573 90.3565 21.6962 86.6821 22.8009C84.6458 23.4129 82.7001 23.755 80.6409 23.7113C78.0137 23.6555 77.2809 22.7287 77.7406 20.1436C77.8994 19.2478 78.1198 18.3629 78.2983 17.4704C78.7574 15.1799 79.86 13.2044 81.3507 11.3267Z" fill="#70BF4D"></path><path d="M105.877 22.3103C107.702 21.5677 109.549 21.5421 111.363 21.8412C112.789 22.0764 114.188 22.5497 115.557 23.0341C116.873 23.4994 117.839 24.469 118.58 25.6352C118.677 25.7887 118.585 26.1426 118.47 26.3394C117.006 28.8499 114.922 30.6823 112.161 31.5765C109.554 32.4207 106.95 32.5552 104.217 31.6532C102.703 31.1534 101.36 30.5263 100.113 29.6136C98.5233 28.4492 98.4726 27.5647 99.8666 26.1741C100.35 25.6922 100.866 25.2434 101.359 24.7719C102.627 23.5621 104.154 22.8227 105.877 22.3103Z" fill="#70BF4D"></path><path d="M18.6785 82.1828C19.8564 81.2904 21.1893 80.9139 22.5616 80.778C23.6403 80.6718 24.7454 80.7428 25.8316 80.828C26.8753 80.9098 27.7631 81.425 28.5262 82.126C28.6267 82.218 28.6283 82.4925 28.5833 82.6574C28.01 84.7599 26.8563 86.492 25.0294 87.6758C23.3047 88.7933 21.4438 89.3963 19.289 89.2733C18.0952 89.2057 17.0007 89.0117 15.9207 88.5925C14.5427 88.0578 14.3339 87.427 15.074 86.1486C15.3305 85.7058 15.6171 85.2805 15.8833 84.8431C16.5666 83.7209 17.5293 82.8886 18.6785 82.1828Z" fill="#70BF4D"></path><path fill-rule="evenodd" clip-rule="evenodd" d="M32.9029 27.203C36.5409 24.6565 43.0055 22.1032 50.4649 22.5653C57.9165 23.0268 66.3741 26.4981 74.0104 36.0211L74.2422 35.8835C76.912 34.2152 81.3665 32.4684 86.0442 32.6482C90.7096 32.8275 95.607 34.9225 99.1948 40.9581C102.783 46.995 102.684 53.4037 101.093 58.9749C99.5017 64.5473 96.4216 69.268 94.0703 71.9073C90.7495 75.3917 82.5969 83.2306 75.7891 87.5702L75.236 70.4964C75.5227 70.3923 76.315 69.7284 76.9073 69.2329C77.1878 68.9976 77.4231 68.8002 77.5373 68.7191C77.5373 68.7191 80.4424 66.2369 80.1936 60.5749C80.1936 60.5749 80.7473 46.5885 72.7576 46.5885C64.7188 46.5885 65.1445 60.5749 65.1445 60.5749C65.1445 66.4089 68.5086 68.7191 68.5086 68.7191C68.6614 68.8076 68.9325 69.1301 69.2245 69.4776C69.6085 69.9339 70.0277 70.4335 70.2596 70.4964V90.7855C66.0595 93.0564 63.0282 94.3119 61.8292 94.8088L61.8248 94.8108L61.8075 94.8175C59.5898 93.9846 56.9405 92.838 54.0751 91.4021L54.0663 69.9035L56.2211 68.2837C57.7753 67.1138 58.948 64.5396 58.948 62.292V48.3144C58.948 47.166 58.1922 46.2347 57.2631 46.2347C56.3328 46.2347 55.5782 47.166 55.5782 48.3144V60.9055H54.6413V48.3144C54.6413 47.166 53.8868 46.2347 52.9564 46.2347C52.0262 46.2347 51.2715 47.166 51.2715 48.3144V60.9055H50.3325V48.3144C50.3325 47.166 49.5779 46.2347 48.6476 46.2347C47.718 46.2347 46.9628 47.166 46.9628 48.3144V60.9055H46.0299V48.7639C46.0299 47.6158 45.2746 46.6842 44.3449 46.6842C43.4147 46.6842 42.66 47.6158 42.66 48.7639V62.525C42.66 64.8374 43.9248 67.3639 45.6002 68.3979L48.5082 70.1902L48.4827 88.3653C45.2838 86.4885 41.9962 84.3109 38.8687 81.8596C30.8116 75.5452 23.8431 67.4354 22.1509 58.0094C18.7571 39.1045 27.9255 29.6009 32.8782 27.2176L32.8911 27.2113L32.9029 27.203Z" fill="#F09F1A"></path><path d="M74.0099 36.0213L73.878 36.127L73.97 36.2416L74.0957 36.1666L74.0099 36.0213ZM74.2417 35.8836L74.3283 36.029L74.331 36.027L74.2417 35.8836ZM94.0698 71.9075L94.1922 72.0245L94.1962 72.0197L94.0698 71.9075ZM75.7886 87.5704L75.6195 87.5758L75.629 87.8719L75.8791 87.713L75.7886 87.5704ZM75.2355 70.4966L75.1781 70.3377L75.0625 70.3796L75.0665 70.502L75.2355 70.4966ZM76.9068 69.233L77.0149 69.3621L77.021 69.3574L77.0257 69.3527L76.9068 69.233ZM76.9068 69.233L76.7979 69.1032L76.7925 69.108L76.7871 69.1134L76.9068 69.233ZM77.5368 68.7192L77.6349 68.8571L77.641 68.8524L77.647 68.8477L77.5368 68.7192ZM80.1931 60.5751L80.0241 60.5684L80.0234 60.5754L80.0241 60.5825L80.1931 60.5751ZM65.1441 60.5751H65.3131L65.313 60.57L65.1441 60.5751ZM68.5081 68.7192L68.4121 68.8585L68.4175 68.8619L68.4229 68.8652L68.5081 68.7192ZM70.2591 70.4966H70.4281V70.3674L70.3037 70.3336L70.2591 70.4966ZM70.2591 90.7857L70.3395 90.9344L70.4281 90.8864V90.7857H70.2591ZM61.8287 94.8089L61.764 94.6527L61.7542 94.6568L61.7448 94.6622L61.8287 94.8089ZM61.8287 94.8089L61.8933 94.9651L61.9032 94.961L61.9125 94.9556L61.8287 94.8089ZM61.807 94.8177L61.7476 94.9759L61.81 94.9996L61.8717 94.9739L61.807 94.8177ZM54.0746 91.4023H53.9056L53.9057 91.5071L53.9989 91.5537L54.0746 91.4023ZM54.0658 69.9037L53.9642 69.7685L53.8968 69.8192V69.9037H54.0658ZM55.5777 60.9057V61.0747H55.7467V60.9057H55.5777ZM54.6408 60.9057H54.4718V61.0747H54.6408V60.9057ZM51.271 60.9057V61.0747H51.44V60.9057H51.271ZM50.332 60.9057H50.163V61.0747H50.332V60.9057ZM46.9623 60.9057V61.0747H47.1313V60.9057H46.9623ZM46.0294 60.9057H45.8604V61.0747H46.0294V60.9057ZM48.5077 70.1903H48.6767L48.6769 70.0957L48.5964 70.0463L48.5077 70.1903ZM48.4822 88.3654L48.3966 88.5108L48.6508 88.6602L48.6512 88.3654H48.4822ZM32.8906 27.2115L32.9639 27.3638L32.9763 27.3578L32.9876 27.35L32.8906 27.2115ZM61.8799 95.1733L61.9485 95.3281L61.9498 95.3274L61.8799 95.1733ZM61.8799 95.1733L61.8111 95.0192L61.8098 95.0198L61.8799 95.1733ZM61.807 95.2058L61.7479 95.364L61.8103 95.3876L61.8718 95.3619L61.807 95.2058ZM94.3308 72.1475L94.4531 72.2638L94.4565 72.2604L94.3308 72.1475ZM74.0923 35.5596L73.9612 35.6662L74.0551 35.7818L74.1816 35.7031L74.0923 35.5596ZM32.7111 26.9049L32.7846 27.0571L32.7969 27.0512L32.8079 27.0435L32.7111 26.9049ZM50.4749 22.3968C42.9735 21.9321 36.4716 24.4986 32.8055 27.0648L32.9993 27.3417C36.6093 24.8148 43.0366 22.2747 50.454 22.7341L50.4749 22.3968ZM74.1417 35.9155C66.4769 26.3569 57.9759 22.8614 50.4749 22.3968L50.454 22.7341C57.856 23.1926 66.2702 26.6395 73.878 36.127L74.1417 35.9155ZM74.1552 35.7383L73.9233 35.8759L74.0957 36.1666L74.3283 36.029L74.1552 35.7383ZM86.0504 32.4795C81.3309 32.2981 76.8425 34.059 74.1518 35.7403L74.331 36.027C76.9798 34.3717 81.4019 32.6391 86.0376 32.8172L86.0504 32.4795ZM99.3397 40.8719C95.7207 34.784 90.7693 32.6609 86.0504 32.4795L86.0376 32.8172C90.649 32.9945 95.4922 35.0611 99.0489 41.0446L99.3397 40.8719ZM101.255 59.0214C102.855 53.4194 102.958 46.9597 99.3397 40.8719L99.0489 41.0446C102.607 47.0305 102.512 53.3882 100.93 58.9286L101.255 59.0214ZM94.1962 72.0197C96.5611 69.3649 99.656 64.622 101.255 59.0214L100.93 58.9286C99.3471 64.473 96.2805 69.1715 93.944 71.7953L94.1962 72.0197ZM75.8791 87.713C82.7053 83.3619 90.8693 75.5109 94.1922 72.0245L93.9474 71.7912C90.6293 75.2722 82.4883 83.0996 75.698 87.4277L75.8791 87.713ZM75.0665 70.502L75.6195 87.5758L75.9576 87.565L75.4046 70.4912L75.0665 70.502ZM76.7979 69.1032C76.5018 69.3513 76.1577 69.6393 75.8521 69.8787C75.7 69.9976 75.5587 70.1038 75.439 70.1856C75.3153 70.2701 75.2274 70.3194 75.1781 70.3377L75.293 70.6554C75.387 70.6216 75.5053 70.5493 75.6297 70.4641C75.7581 70.3769 75.9055 70.266 76.061 70.1443C76.3713 69.9016 76.7195 69.6096 77.0149 69.3621L76.7979 69.1032ZM77.4395 68.5813C77.3178 68.6678 77.0751 68.8713 76.7979 69.1032L77.0149 69.3621C77.2995 69.1242 77.5274 68.9329 77.6349 68.8571L77.4395 68.5813ZM80.0241 60.5825C80.1471 63.382 79.4906 65.3886 78.8085 66.692C78.4671 67.3443 78.1189 67.8214 77.8573 68.1344C77.7268 68.2906 77.6173 68.4062 77.5422 68.4819C77.5044 68.5198 77.4746 68.5475 77.455 68.5658C77.4456 68.5745 77.4381 68.5813 77.4334 68.5854C77.4307 68.5874 77.4293 68.5887 77.428 68.5901L77.4273 68.5908C77.4273 68.5908 77.4273 68.5908 77.5368 68.7192C77.647 68.8477 77.647 68.8477 77.647 68.8477C77.6477 68.8477 77.6477 68.847 77.6477 68.8463C77.6484 68.8463 77.6491 68.8456 77.6504 68.845C77.6518 68.8429 77.6545 68.8409 77.6579 68.8382C77.6639 68.8328 77.6727 68.8247 77.6842 68.8139C77.7072 68.7929 77.7397 68.7618 77.7809 68.7212C77.8634 68.6388 77.979 68.5157 78.1169 68.3514C78.392 68.0215 78.7544 67.5247 79.108 66.8487C79.8165 65.4957 80.4878 63.4302 80.3614 60.5677L80.0241 60.5825ZM72.7571 46.7577C74.6967 46.7577 76.1144 47.6032 77.1589 48.881C78.2075 50.1646 78.8795 51.8854 79.3068 53.6222C79.734 55.3569 79.9132 57.094 79.9855 58.3991C80.022 59.0512 80.0315 59.5944 80.0322 59.9743C80.0322 60.1642 80.0301 60.3132 80.0281 60.4145C80.0268 60.4652 80.0261 60.5039 80.0254 60.5298C80.0247 60.5428 80.0247 60.5525 80.0241 60.559C80.0241 60.5623 80.0241 60.5646 80.0241 60.5663C80.0241 60.567 80.0241 60.5681 80.0241 60.5684C80.0241 60.5683 80.0241 60.5686 80.0241 60.5684C80.0241 60.5685 80.0241 60.5684 80.1931 60.5751C80.3614 60.5818 80.3614 60.5817 80.3614 60.5815C80.3614 60.5818 80.3614 60.5814 80.3614 60.5815C80.3614 60.5811 80.3621 60.5798 80.3621 60.5788C80.3621 60.577 80.3621 60.5744 80.3621 60.5708C80.3621 60.5639 80.3628 60.5536 80.3628 60.5401C80.3641 60.5131 80.3648 60.4733 80.3661 60.4215C80.3682 60.3179 80.3702 60.1664 80.3702 59.9739C80.3695 59.5889 80.36 59.0394 80.3235 58.3803C80.2499 57.0629 80.0687 55.3034 79.6353 53.5415C79.202 51.7817 78.5144 50.0059 77.4206 48.6671C76.3213 47.3223 74.8123 46.4196 72.7571 46.4196V46.7577ZM65.1441 60.5751C65.313 60.57 65.313 60.57 65.313 60.57C65.313 60.5702 65.313 60.5698 65.313 60.57C65.313 60.5696 65.313 60.5685 65.3129 60.5678C65.3129 60.5662 65.3129 60.5638 65.3127 60.5606C65.3126 60.5541 65.3123 60.5443 65.312 60.5314C65.3115 60.5055 65.3108 60.4667 65.3102 60.4161C65.3091 60.3148 65.3085 60.1658 65.3105 59.9759C65.3145 59.596 65.3292 59.0528 65.3718 58.4007C65.4571 57.0957 65.654 55.3586 66.0997 53.6239C66.5459 51.8871 67.2382 50.1661 68.306 48.8821C69.3694 47.6038 70.8047 46.7577 72.7571 46.7577V46.4196C70.6904 46.4196 69.1639 47.3218 68.0464 48.666C66.933 50.0044 66.2245 51.78 65.7723 53.5398C65.3196 55.3017 65.1206 57.0612 65.0345 58.3787C64.9914 59.0378 64.9765 59.5873 64.9725 59.9723C64.9704 60.1649 64.971 60.3163 64.9723 60.4199C64.9728 60.4717 64.9735 60.5116 64.9741 60.5385C64.9744 60.5521 64.9746 60.5623 64.9748 60.5693C64.9749 60.5728 64.975 60.5754 64.975 60.5773C64.9751 60.5782 64.9751 60.5789 64.9751 60.5794C64.9751 60.5792 64.9751 60.5796 64.9751 60.5794C64.9751 60.5795 64.9751 60.5802 65.1441 60.5751ZM68.5081 68.7192C68.6034 68.58 68.6034 68.58 68.6034 68.58L68.6028 68.5793C68.6014 68.5779 68.5994 68.5766 68.5967 68.5745C68.5913 68.5712 68.5825 68.5644 68.571 68.5563C68.548 68.5394 68.5142 68.513 68.4696 68.4772C68.3817 68.4055 68.2539 68.296 68.1004 68.1459C67.7928 67.8458 67.3808 67.3847 66.9681 66.7434C66.1435 65.462 65.3131 63.4575 65.3131 60.5751H64.975C64.975 63.5266 65.8265 65.5942 66.6838 66.9263C67.112 67.5917 67.541 68.0722 67.8645 68.388C68.0261 68.5455 68.1613 68.6624 68.2566 68.7395C68.3046 68.7787 68.3425 68.8078 68.3695 68.8274C68.3824 68.8369 68.3925 68.8443 68.3999 68.8497C68.4033 68.8524 68.4067 68.8544 68.4087 68.8558C68.4094 68.8565 68.4101 68.8571 68.4108 68.8578C68.4114 68.8585 68.4121 68.8585 68.4121 68.8585C68.4121 68.8585 68.4121 68.8585 68.5081 68.7192ZM69.3532 69.3689C69.2078 69.1958 69.0645 69.0255 68.9388 68.8876C68.8177 68.7551 68.6954 68.632 68.5926 68.5732L68.4229 68.8652C68.4736 68.8943 68.5629 68.9775 68.6886 69.1154C68.8096 69.2472 68.9475 69.4122 69.0942 69.5866L69.3532 69.3689ZM70.3037 70.3336C70.2807 70.3276 70.2334 70.3025 70.1597 70.2437C70.0894 70.1869 70.009 70.1105 69.9204 70.0179C69.7433 69.8327 69.5459 69.5988 69.3532 69.3689L69.0942 69.5866C69.2856 69.8138 69.4897 70.0571 69.6763 70.2518C69.7696 70.3492 69.8616 70.4371 69.9474 70.5067C70.0292 70.573 70.1219 70.6345 70.2145 70.6595L70.3037 70.3336ZM70.4281 90.7857V70.4966H70.0901V90.7857H70.4281ZM61.8933 94.9651C63.0946 94.4675 66.132 93.2087 70.3395 90.9344L70.1786 90.637C65.9859 92.9038 62.9605 94.1572 61.764 94.6527L61.8933 94.9651ZM61.8889 94.9671L61.8933 94.9651L61.764 94.6527L61.7597 94.6548L61.8889 94.9671ZM61.8717 94.9739L61.8889 94.9671L61.7597 94.6548L61.7423 94.6615L61.8717 94.9739ZM53.9989 91.5537C56.8691 92.9923 59.5239 94.141 61.7476 94.9759L61.8665 94.6595C59.6547 93.8293 57.0108 92.6847 54.1504 91.2515L53.9989 91.5537ZM54.2437 91.4023L54.2348 69.903L53.8968 69.9037L53.9056 91.4023H54.2437ZM54.1673 70.0382L56.3221 68.4191L56.119 68.1486L53.9642 69.7685L54.1673 70.0382ZM56.3221 68.4191C57.1281 67.8126 57.8253 66.8505 58.3207 65.7622C58.8166 64.6728 59.1165 63.4435 59.1165 62.2922H58.7785C58.7785 63.3883 58.4921 64.57 58.0131 65.6221C57.5335 66.6754 56.8674 67.5855 56.119 68.1486L56.3221 68.4191ZM59.1165 62.2922V48.3146H58.7785V62.2922H59.1165ZM59.1165 48.3146C59.1165 47.1077 58.3165 46.0659 57.2626 46.0659V46.4039C58.067 46.4039 58.7785 47.2247 58.7785 48.3146H59.1165ZM57.2626 46.0659C56.2074 46.0659 55.4087 47.1078 55.4087 48.3146H55.7467C55.7467 47.2246 56.4571 46.4039 57.2626 46.4039V46.0659ZM55.4087 48.3146V60.9057H55.7467V48.3146H55.4087ZM55.5777 60.7367H54.6408V61.0747H55.5777V60.7367ZM54.8099 60.9057V48.3146H54.4718V60.9057H54.8099ZM54.8099 48.3146C54.8099 47.1078 54.0111 46.0659 52.9559 46.0659V46.4039C53.7614 46.4039 54.4718 47.2246 54.4718 48.3146H54.8099ZM52.9559 46.0659C51.9009 46.0659 51.102 47.1078 51.102 48.3146H51.44C51.44 47.2246 52.1506 46.4039 52.9559 46.4039V46.0659ZM51.102 48.3146V60.9057H51.44V48.3146H51.102ZM51.271 60.7367H50.332V61.0747H51.271V60.7367ZM50.501 60.9057V48.3146H50.163V60.9057H50.501ZM50.501 48.3146C50.501 47.1078 49.7022 46.0659 48.6471 46.0659V46.4039C49.4526 46.4039 50.163 47.2246 50.163 48.3146H50.501ZM48.6471 46.0659C47.5927 46.0659 46.7933 47.1078 46.7933 48.3146H47.1313C47.1313 47.2246 47.8424 46.4039 48.6471 46.4039V46.0659ZM46.7933 48.3146V60.9057H47.1313V48.3146H46.7933ZM46.9623 60.7367H46.0294V61.0747H46.9623V60.7367ZM46.1984 60.9057V48.7641H45.8604V60.9057H46.1984ZM46.1984 48.7641C46.1984 47.5576 45.399 46.5154 44.3444 46.5154V46.8534C45.1494 46.8534 45.8604 47.6744 45.8604 48.7641H46.1984ZM44.3444 46.5154C43.2895 46.5154 42.4905 47.5576 42.4905 48.7641H42.8285C42.8285 47.6743 43.5391 46.8534 44.3444 46.8534V46.5154ZM42.4905 48.7641V62.5252H42.8285V48.7641H42.4905ZM42.4905 62.5252C42.4905 63.7106 42.8142 64.9461 43.3502 66.0166C43.8855 67.086 44.6393 68.004 45.511 68.5414L45.6884 68.2541C44.8846 67.7579 44.1683 66.8958 43.6525 65.8653C43.1372 64.8361 42.8285 63.6521 42.8285 62.5252H42.4905ZM45.511 68.5414L48.419 70.3343L48.5964 70.0463L45.6884 68.2541L45.511 68.5414ZM48.3387 70.1903L48.3132 88.3647L48.6512 88.3654L48.6767 70.1903H48.3387ZM38.7639 81.9929C41.8983 84.4497 45.1923 86.6313 48.3966 88.5108L48.5677 88.2194C45.3743 86.346 42.0932 84.1732 38.9724 81.7272L38.7639 81.9929ZM21.9841 58.0394C23.6871 67.526 30.6947 75.6684 38.7639 81.9929L38.9724 81.7272C30.9276 75.4216 23.998 67.3449 22.3168 57.9797L21.9841 58.0394ZM32.8044 27.0654C27.7799 29.4834 18.5776 39.0637 21.9841 58.0394L22.3168 57.9797C18.9357 39.1457 28.0703 29.7188 32.951 27.37L32.8044 27.0654ZM32.8173 27.0592L32.8044 27.0654L32.951 27.37L32.9639 27.3638L32.8173 27.0592ZM32.8055 27.0648L32.7937 27.073L32.9876 27.35L32.9993 27.3417L32.8055 27.0648ZM61.8955 94.9813C61.8726 94.9908 61.8387 95.0063 61.8101 95.0192L61.9498 95.3274C61.981 95.3133 62.0086 95.3004 62.0249 95.2936L61.8955 94.9813ZM61.8098 95.0198C61.7801 95.0334 61.7557 95.0442 61.7423 95.0496L61.8718 95.3619C61.8917 95.3538 61.9227 95.3396 61.9498 95.3274L61.8098 95.0198ZM61.8999 94.9799L61.8955 94.9813L62.0249 95.2936L62.0293 95.2923L61.8999 94.9799ZM70.1786 91.0392C66.0576 93.2574 63.0849 94.4885 61.8999 94.9799L62.0293 95.2923C63.2191 94.7988 66.2035 93.5623 70.3389 91.3367L70.1786 91.0392ZM94.2064 72.0333C90.8565 75.5474 82.5775 83.508 75.7115 87.8381L75.892 88.1241C82.7939 83.7709 91.0965 75.7854 94.4511 72.2665L94.2064 72.0333ZM94.2084 72.0312L94.2057 72.0333L94.4511 72.2665L94.4531 72.2638L94.2084 72.0312ZM94.2064 72.0326L94.2043 72.0346L94.4565 72.2604L94.4585 72.2577L94.2064 72.0326ZM101.27 59.0258C99.6702 64.6306 96.5732 69.3763 94.2064 72.0326L94.4585 72.2577C96.8538 69.569 99.9792 64.7796 101.596 59.1186L101.27 59.0258ZM99.3532 40.8637C102.975 46.9564 102.871 53.4209 101.27 59.0258L101.596 59.1186C103.213 53.4521 103.326 46.8856 99.6439 40.6909L99.3532 40.8637ZM86.0511 32.4635C90.7754 32.645 95.7315 34.7708 99.3532 40.8637L99.6439 40.6909C95.96 34.4937 90.8957 32.3114 86.0639 32.1256L86.0511 32.4635ZM74.1816 35.7031C76.8777 34.0277 81.3491 32.2828 86.0511 32.4635L86.0639 32.1256C81.2781 31.9418 76.7411 33.7148 74.0031 35.416L74.1816 35.7031ZM50.4759 22.3808C57.9188 22.8418 66.3441 26.2851 73.9612 35.6662L74.2235 35.4531C66.5493 26.0015 58.0377 22.5104 50.4968 22.0433L50.4759 22.3808ZM32.8079 27.0435C36.4789 24.4781 42.9785 21.9163 50.4759 22.3808L50.4968 22.0433C42.9155 21.5738 36.3413 24.1618 32.6143 26.7664L32.8079 27.0435ZM21.9683 58.0423C18.5634 39.0759 27.7505 29.4884 32.7846 27.0571L32.6376 26.7528C27.4601 29.2534 18.2053 38.994 21.6356 58.102L21.9683 58.0423ZM38.754 82.0058C30.6836 75.6806 23.6723 67.5347 21.9683 58.0423L21.6356 58.102C23.3614 67.716 30.4508 75.9273 38.5455 82.2714L38.754 82.0058ZM61.8661 95.0476C59.6599 94.2234 57.0156 93.0836 54.1504 91.6524L53.9993 91.9546C56.8742 93.3905 59.5295 94.5358 61.7479 95.364L61.8661 95.0476ZM48.5668 88.6311C45.3028 86.7246 41.9437 84.5058 38.754 82.0058L38.5455 82.2714C41.7491 84.7823 45.1212 87.0099 48.3964 88.9232L48.5668 88.6311Z" fill="#F09F1A"></path><path d="M38.278 38.7803C28.7 49.6239 30.5494 72.0744 35.2918 79.5198C26.4745 72.2718 11.8331 53.1667 23.8062 34.7268C35.7792 16.2868 58.2862 20.7359 67.0919 28.7037C62.719 27.7507 47.8561 27.9368 38.278 38.7803Z" fill="#F1A621" stroke="#F1A621" stroke-width="0.4"></path><path d="M97.1893 68.1891C100.393 48.5067 88.7501 36.2144 82.3174 32.7334C86.4947 31.8079 96.0515 32.435 100.858 42.3471C105.664 52.2591 100.284 63.7051 97.1893 68.1891Z" fill="#E95926" stroke="#FF5335" stroke-width="0.4"></path><path d="M5.12617 26.4059C7.86397 26.4059 10.0834 24.1865 10.0834 21.4487C10.0834 18.7109 7.86397 16.4915 5.12617 16.4915C2.38837 16.4915 0.168945 18.7109 0.168945 21.4487C0.168945 24.1865 2.38837 26.4059 5.12617 26.4059Z" fill="#70BF4D"></path><path d="M22.1222 26.406C23.4911 26.406 24.6008 25.2962 24.6008 23.9273C24.6008 22.5584 23.4911 21.4487 22.1222 21.4487C20.7533 21.4487 19.6436 22.5584 19.6436 23.9273C19.6436 25.2962 20.7533 26.406 22.1222 26.406Z" fill="#70BF4D"></path><path d="M118.789 62.8772C119.962 62.8772 120.913 61.926 120.913 60.7527C120.913 59.5794 119.962 58.6282 118.789 58.6282C117.615 58.6282 116.664 59.5794 116.664 60.7527C116.664 61.926 117.615 62.8772 118.789 62.8772Z" fill="#70BF4D"></path><path d="M34.5153 94.7452C36.0798 94.7452 37.348 93.477 37.348 91.9125C37.348 90.3481 36.0798 89.0798 34.5153 89.0798C32.9509 89.0798 31.6826 90.3481 31.6826 91.9125C31.6826 93.477 32.9509 94.7452 34.5153 94.7452Z" fill="#70BF4D"></path><path d="M93.2938 93.3293C95.2494 93.3293 96.8347 91.744 96.8347 89.7884C96.8347 87.8329 95.2494 86.2476 93.2938 86.2476C91.3382 86.2476 89.7529 87.8329 89.7529 89.7884C89.7529 91.744 91.3382 93.3293 93.2938 93.3293Z" fill="#70BF4D"></path><path d="M74.8805 6.22325C76.445 6.22325 77.7132 4.95501 77.7132 3.39056C77.7132 1.8261 76.445 0.557861 74.8805 0.557861C73.3161 0.557861 72.0479 1.8261 72.0479 3.39056C72.0479 4.95501 73.3161 6.22325 74.8805 6.22325Z" fill="#70BF4D"></path><path d="M153.638 25.648C153.702 25.648 153.734 25.7067 153.734 25.824C153.734 25.9413 153.702 26 153.638 26H148.118C148.043 26 148.006 25.9413 148.006 25.824C148.006 25.7067 148.043 25.648 148.118 25.648C148.608 25.6267 148.96 25.568 149.174 25.472C149.398 25.3653 149.51 25.2053 149.51 24.992C149.51 24.864 149.44 24.6027 149.302 24.208L148.534 22H144.694C144.256 23.1947 143.995 23.9413 143.91 24.24C143.856 24.3893 143.83 24.544 143.83 24.704C143.83 25.0453 143.979 25.2907 144.278 25.44C144.576 25.5787 144.96 25.648 145.43 25.648C145.504 25.648 145.542 25.7067 145.542 25.824C145.542 25.9413 145.504 26 145.43 26H141.35C141.275 26 141.238 25.9413 141.238 25.824C141.238 25.7067 141.275 25.648 141.35 25.648C141.723 25.648 142.064 25.5413 142.374 25.328C142.694 25.1147 142.95 24.7627 143.142 24.272L146.918 14.288L148.086 13.952C148.192 13.952 148.262 14.0107 148.294 14.128C148.624 15.0987 149.238 16.8853 150.134 19.488C151.03 22.0907 151.579 23.648 151.782 24.16C151.963 24.6293 152.118 24.9653 152.246 25.168C152.384 25.36 152.55 25.488 152.742 25.552C152.944 25.616 153.243 25.648 153.638 25.648ZM148.342 21.424L146.678 16.592L144.902 21.424H148.342ZM160.272 26.208C159.578 26.208 158.789 25.9947 157.904 25.568C157.029 25.1413 156.272 24.4853 155.632 23.6C154.992 22.7147 154.672 21.6267 154.672 20.336C154.672 19.4933 154.864 18.5813 155.248 17.6C155.632 16.608 156.256 15.76 157.12 15.056C157.984 14.3413 159.082 13.984 160.416 13.984C160.746 13.984 161.05 14.016 161.328 14.08C161.605 14.144 161.904 14.2347 162.224 14.352C162.672 14.5013 162.981 14.576 163.152 14.576C163.322 14.576 163.482 14.5493 163.632 14.496C163.781 14.432 163.941 14.3093 164.112 14.128L164.528 16.016L164.72 16.912C164.73 16.9547 164.736 17.0027 164.736 17.056C164.736 17.0987 164.709 17.136 164.656 17.168C164.634 17.1893 164.602 17.2 164.56 17.2C164.485 17.2 164.426 17.168 164.384 17.104C164.042 16.6027 163.701 16.176 163.36 15.824C163.029 15.4613 162.624 15.1573 162.144 14.912C161.664 14.6667 161.114 14.544 160.496 14.544C159.141 14.544 158.245 15.216 157.808 16.56C157.381 17.8933 157.168 19.2107 157.168 20.512C157.168 21.1733 157.274 21.9093 157.488 22.72C157.701 23.52 158.037 24.2187 158.496 24.816C158.965 25.4027 159.546 25.696 160.24 25.696C160.944 25.696 161.472 25.552 161.824 25.264C162.186 24.9653 162.416 24.5813 162.512 24.112C162.586 23.7707 162.624 23.4027 162.624 23.008C162.624 22.848 162.613 22.6613 162.592 22.448C162.56 22.16 162.437 21.9307 162.224 21.76C162.021 21.5787 161.605 21.488 160.976 21.488C160.89 21.488 160.848 21.4293 160.848 21.312C160.848 21.1947 160.89 21.136 160.976 21.136H166.176C166.25 21.136 166.288 21.1947 166.288 21.312C166.288 21.4293 166.25 21.488 166.176 21.488C165.792 21.488 165.466 21.5733 165.2 21.744C164.944 21.9147 164.789 22.1653 164.736 22.496C164.714 22.6453 164.704 22.9013 164.704 23.264C164.704 23.8293 164.72 24.5653 164.752 25.472H164.448C164.01 25.472 163.637 25.504 163.328 25.568C163.018 25.632 162.666 25.728 162.272 25.856C161.898 25.9733 161.568 26.0587 161.28 26.112C161.002 26.176 160.666 26.208 160.272 26.208ZM178.066 22.688C178.13 22.7093 178.162 22.7627 178.162 22.848C178.162 22.88 178.135 22.96 178.082 23.088L177.01 26H167.346C167.26 26 167.218 25.936 167.218 25.808C167.218 25.7013 167.26 25.648 167.346 25.648H167.522C168.407 25.648 168.85 25.184 168.85 24.256V15.888C168.85 14.9707 168.407 14.512 167.522 14.512H167.346C167.26 14.512 167.218 14.448 167.218 14.32C167.218 14.2133 167.26 14.16 167.346 14.16H176.658C176.871 14.544 177.09 14.9493 177.314 15.376C177.548 15.8027 177.714 16.1173 177.81 16.32L177.826 16.384C177.826 16.4373 177.794 16.48 177.73 16.512C177.687 16.5333 177.65 16.544 177.618 16.544C177.554 16.544 177.506 16.528 177.474 16.496C177.036 16.0373 176.423 15.6107 175.634 15.216C174.844 14.8213 174.066 14.624 173.298 14.624H173.026C172.588 14.624 172.247 14.6453 172.002 14.688C171.767 14.72 171.58 14.8053 171.442 14.944C171.303 15.0827 171.234 15.3067 171.234 15.616V19.584H172.466C173.042 19.584 173.431 19.5787 173.634 19.568C174.092 19.5573 174.455 19.392 174.722 19.072C174.988 18.752 175.122 18.3947 175.122 18C175.122 17.9573 175.138 17.9307 175.17 17.92C175.202 17.8987 175.25 17.888 175.314 17.888C175.388 17.888 175.436 17.8987 175.458 17.92C175.49 17.9307 175.506 17.9573 175.506 18V21.744C175.506 21.7867 175.49 21.8187 175.458 21.84C175.436 21.8507 175.388 21.856 175.314 21.856C175.25 21.856 175.202 21.8507 175.17 21.84C175.138 21.8187 175.122 21.7867 175.122 21.744C175.122 21.3493 174.988 20.992 174.722 20.672C174.455 20.352 174.092 20.1867 173.634 20.176C173.431 20.1653 173.042 20.16 172.466 20.16H171.234V24.512C171.234 24.8853 171.346 25.1413 171.57 25.28C171.794 25.408 172.156 25.488 172.658 25.52C172.764 25.5307 172.908 25.536 173.09 25.536C173.303 25.536 173.484 25.5307 173.634 25.52C174.583 25.4773 175.388 25.184 176.05 24.64C176.711 24.0853 177.298 23.4453 177.81 22.72C177.842 22.6773 177.89 22.656 177.954 22.656C177.986 22.656 178.023 22.6667 178.066 22.688ZM179.418 26C179.354 26 179.322 25.936 179.322 25.808C179.322 25.7013 179.354 25.648 179.418 25.648H179.562C179.914 25.648 180.229 25.52 180.506 25.264C180.794 24.9973 180.938 24.6187 180.938 24.128V15.696C180.757 15.344 180.56 15.0827 180.346 14.912C180.144 14.7307 179.898 14.608 179.61 14.544L179.418 14.512C179.344 14.4907 179.306 14.432 179.306 14.336C179.306 14.2187 179.344 14.16 179.418 14.16H182.89L188.73 22.64V16.016C188.73 15.536 188.586 15.168 188.298 14.912C188.021 14.656 187.706 14.5227 187.354 14.512H187.21C187.136 14.512 187.098 14.4533 187.098 14.336C187.098 14.2187 187.136 14.16 187.21 14.16H190.89C190.965 14.16 191.002 14.2187 191.002 14.336C191.002 14.4533 190.965 14.512 190.89 14.512H190.73C190.378 14.5227 190.064 14.656 189.786 14.912C189.509 15.168 189.37 15.536 189.37 16.016V26H188.138L181.578 16.432V24.128C181.578 24.6187 181.717 24.9973 181.994 25.264C182.282 25.52 182.602 25.648 182.954 25.648H183.098C183.173 25.648 183.21 25.7013 183.21 25.808C183.21 25.936 183.173 26 183.098 26H179.418ZM198.409 26.208C197.459 26.208 196.515 26 195.577 25.584C194.638 25.168 193.854 24.5173 193.225 23.632C192.606 22.736 192.297 21.616 192.297 20.272C192.297 19.2693 192.531 18.2827 193.001 17.312C193.47 16.3307 194.137 15.5307 195.001 14.912C195.875 14.2933 196.878 13.984 198.009 13.984C198.318 13.984 198.622 14.0213 198.921 14.096C199.219 14.1707 199.55 14.272 199.913 14.4C199.998 14.4213 200.142 14.464 200.345 14.528C200.547 14.592 200.707 14.624 200.825 14.624C200.985 14.624 201.134 14.5867 201.273 14.512C201.422 14.4373 201.577 14.3307 201.737 14.192L202.361 16.88L202.393 17.04C202.393 17.0933 202.35 17.1413 202.265 17.184C202.243 17.1947 202.217 17.2 202.185 17.2C202.131 17.2 202.078 17.168 202.025 17.104C201.683 16.6133 201.347 16.192 201.017 15.84C200.697 15.4773 200.297 15.1733 199.817 14.928C199.347 14.672 198.803 14.544 198.185 14.544C197.278 14.544 196.574 14.9173 196.073 15.664C195.582 16.4 195.257 17.2 195.097 18.064C194.947 18.9173 194.873 19.632 194.873 20.208C194.873 21.328 195.054 22.288 195.417 23.088C195.779 23.8773 196.249 24.4747 196.825 24.88C197.401 25.2747 198.014 25.472 198.665 25.472C199.582 25.472 200.318 25.2427 200.873 24.784C201.438 24.3253 201.955 23.7173 202.425 22.96C202.478 22.9067 202.526 22.88 202.569 22.88C202.59 22.88 202.627 22.896 202.681 22.928C202.745 22.9707 202.777 23.024 202.777 23.088L202.745 23.184C202.361 23.952 201.811 24.6507 201.097 25.28C200.393 25.8987 199.497 26.208 198.409 26.208ZM204.267 26C204.193 26 204.155 25.936 204.155 25.808C204.155 25.6907 204.193 25.632 204.267 25.632H204.443C204.827 25.632 205.142 25.536 205.387 25.344C205.643 25.152 205.771 24.7893 205.771 24.256L205.787 15.904C205.787 15.36 205.659 14.9973 205.403 14.816C205.147 14.624 204.827 14.528 204.443 14.528H204.267C204.193 14.528 204.155 14.464 204.155 14.336C204.155 14.2187 204.193 14.16 204.267 14.16H209.675C209.75 14.16 209.787 14.2187 209.787 14.336C209.787 14.464 209.75 14.528 209.675 14.528H209.499C209.115 14.528 208.795 14.624 208.539 14.816C208.294 14.9973 208.171 15.36 208.171 15.904L208.155 24.256C208.155 24.8 208.283 25.168 208.539 25.36C208.795 25.5413 209.115 25.632 209.499 25.632H209.675C209.75 25.632 209.787 25.6907 209.787 25.808C209.787 25.936 209.75 26 209.675 26H204.267ZM223.138 25.648C223.202 25.648 223.234 25.7067 223.234 25.824C223.234 25.9413 223.202 26 223.138 26H217.618C217.543 26 217.506 25.9413 217.506 25.824C217.506 25.7067 217.543 25.648 217.618 25.648C218.108 25.6267 218.46 25.568 218.674 25.472C218.898 25.3653 219.01 25.2053 219.01 24.992C219.01 24.864 218.94 24.6027 218.802 24.208L218.034 22H214.194C213.756 23.1947 213.495 23.9413 213.41 24.24C213.356 24.3893 213.33 24.544 213.33 24.704C213.33 25.0453 213.479 25.2907 213.778 25.44C214.076 25.5787 214.46 25.648 214.93 25.648C215.004 25.648 215.042 25.7067 215.042 25.824C215.042 25.9413 215.004 26 214.93 26H210.85C210.775 26 210.738 25.9413 210.738 25.824C210.738 25.7067 210.775 25.648 210.85 25.648C211.223 25.648 211.564 25.5413 211.874 25.328C212.194 25.1147 212.45 24.7627 212.642 24.272L216.418 14.288L217.586 13.952C217.692 13.952 217.762 14.0107 217.794 14.128C218.124 15.0987 218.738 16.8853 219.634 19.488C220.53 22.0907 221.079 23.648 221.282 24.16C221.463 24.6293 221.618 24.9653 221.746 25.168C221.884 25.36 222.05 25.488 222.242 25.552C222.444 25.616 222.743 25.648 223.138 25.648ZM217.842 21.424L216.178 16.592L214.402 21.424H217.842ZM239.003 22.688C239.067 22.7093 239.099 22.7627 239.099 22.848C239.099 22.88 239.073 22.96 239.019 23.088L237.947 26H228.283C228.198 26 228.155 25.936 228.155 25.808C228.155 25.7013 228.198 25.648 228.283 25.648H228.459C229.345 25.648 229.787 25.184 229.787 24.256V15.888C229.787 14.9707 229.345 14.512 228.459 14.512H228.283C228.198 14.512 228.155 14.448 228.155 14.32C228.155 14.2133 228.198 14.16 228.283 14.16H237.595C237.809 14.544 238.027 14.9493 238.251 15.376C238.486 15.8027 238.651 16.1173 238.747 16.32L238.763 16.384C238.763 16.4373 238.731 16.48 238.667 16.512C238.625 16.5333 238.587 16.544 238.555 16.544C238.491 16.544 238.443 16.528 238.411 16.496C237.974 16.0373 237.361 15.6107 236.571 15.216C235.782 14.8213 235.003 14.624 234.235 14.624H233.963C233.526 14.624 233.185 14.6453 232.939 14.688C232.705 14.72 232.518 14.8053 232.379 14.944C232.241 15.0827 232.171 15.3067 232.171 15.616V19.584H233.403C233.979 19.584 234.369 19.5787 234.571 19.568C235.03 19.5573 235.393 19.392 235.659 19.072C235.926 18.752 236.059 18.3947 236.059 18C236.059 17.9573 236.075 17.9307 236.107 17.92C236.139 17.8987 236.187 17.888 236.251 17.888C236.326 17.888 236.374 17.8987 236.395 17.92C236.427 17.9307 236.443 17.9573 236.443 18V21.744C236.443 21.7867 236.427 21.8187 236.395 21.84C236.374 21.8507 236.326 21.856 236.251 21.856C236.187 21.856 236.139 21.8507 236.107 21.84C236.075 21.8187 236.059 21.7867 236.059 21.744C236.059 21.3493 235.926 20.992 235.659 20.672C235.393 20.352 235.03 20.1867 234.571 20.176C234.369 20.1653 233.979 20.16 233.403 20.16H232.171V24.512C232.171 24.8853 232.283 25.1413 232.507 25.28C232.731 25.408 233.094 25.488 233.595 25.52C233.702 25.5307 233.846 25.536 234.027 25.536C234.241 25.536 234.422 25.5307 234.571 25.52C235.521 25.4773 236.326 25.184 236.987 24.64C237.649 24.0853 238.235 23.4453 238.747 22.72C238.779 22.6773 238.827 22.656 238.891 22.656C238.923 22.656 238.961 22.6667 239.003 22.688ZM245.556 26.208C244.777 26.208 243.865 25.9947 242.82 25.568C242.681 25.504 242.548 25.472 242.42 25.472C242.26 25.472 242.1 25.5253 241.94 25.632C241.78 25.728 241.582 25.8933 241.348 26.128L240.612 23.008L240.58 22.848C240.58 22.8267 240.59 22.8053 240.612 22.784C240.644 22.7627 240.67 22.7467 240.692 22.736C240.724 22.7253 240.745 22.7147 240.756 22.704C240.777 22.6933 240.809 22.688 240.852 22.688C240.894 22.688 240.953 22.7307 241.028 22.816C241.572 23.584 242.196 24.2293 242.9 24.752C243.604 25.264 244.43 25.52 245.38 25.52C246.062 25.52 246.612 25.3493 247.028 25.008C247.444 24.656 247.652 24.1547 247.652 23.504C247.652 22.6933 247.198 22.1013 246.292 21.728C245.876 21.5467 245.353 21.36 244.724 21.168C244.617 21.136 244.35 21.0453 243.924 20.896C243.497 20.7467 243.118 20.5867 242.788 20.416C242.19 20.1067 241.742 19.7067 241.444 19.216C241.145 18.7253 240.996 18.1653 240.996 17.536C240.996 17.0347 241.113 16.512 241.348 15.968C241.582 15.424 241.988 14.96 242.564 14.576C243.15 14.1813 243.918 13.984 244.868 13.984C245.209 13.984 245.534 14.0213 245.844 14.096C246.164 14.1707 246.548 14.288 246.996 14.448C247.177 14.512 247.326 14.544 247.444 14.544C247.604 14.544 247.753 14.5013 247.892 14.416C248.03 14.3307 248.185 14.192 248.356 14L249.172 16.768L249.204 16.896C249.204 16.9493 249.156 16.9973 249.06 17.04C248.996 17.0613 248.948 17.072 248.916 17.072C248.862 17.072 248.809 17.0347 248.756 16.96C248.628 16.7467 248.398 16.4587 248.068 16.096C247.737 15.7227 247.289 15.376 246.724 15.056C246.158 14.7253 245.529 14.56 244.836 14.56C244.228 14.56 243.758 14.6827 243.428 14.928C243.108 15.1733 242.894 15.4453 242.788 15.744C242.681 16.0427 242.628 16.304 242.628 16.528C242.628 16.848 242.708 17.136 242.868 17.392C243.028 17.648 243.262 17.8613 243.572 18.032C243.86 18.192 244.254 18.3573 244.756 18.528C245.268 18.6987 245.572 18.8 245.668 18.832C245.806 18.8747 246.094 18.9707 246.532 19.12C246.969 19.2693 247.337 19.4133 247.636 19.552C249.076 20.2133 249.796 21.2107 249.796 22.544C249.796 23.2267 249.63 23.8453 249.3 24.4C248.969 24.9547 248.484 25.3973 247.844 25.728C247.204 26.048 246.441 26.208 245.556 26.208ZM254.131 26C254.057 26 254.019 25.936 254.019 25.808C254.019 25.7013 254.057 25.648 254.131 25.648H254.323C255.209 25.648 255.651 25.184 255.651 24.256V15.648C255.651 15.2853 255.545 15.024 255.331 14.864C255.129 14.6933 254.846 14.608 254.483 14.608C254.419 14.608 254.323 14.6187 254.195 14.64C253.662 14.736 253.102 14.9973 252.515 15.424C251.929 15.8507 251.497 16.2667 251.219 16.672C251.177 16.736 251.123 16.768 251.059 16.768C251.038 16.768 251.006 16.7573 250.963 16.736C250.889 16.6933 250.851 16.6507 250.851 16.608C250.851 16.576 250.862 16.5227 250.883 16.448L251.763 14.16H261.939L262.291 15.072L262.803 16.448C262.835 16.5227 262.851 16.576 262.851 16.608C262.851 16.6507 262.809 16.6933 262.723 16.736C262.681 16.7573 262.649 16.768 262.627 16.768C262.574 16.768 262.526 16.736 262.483 16.672C262.217 16.2667 261.785 15.8507 261.187 15.424C260.59 14.9973 260.03 14.736 259.507 14.64C259.379 14.6187 259.278 14.608 259.203 14.608C258.851 14.608 258.569 14.6933 258.355 14.864C258.153 15.024 258.051 15.2853 258.051 15.648V24.256C258.051 25.184 258.494 25.648 259.379 25.648H259.555C259.63 25.648 259.667 25.7013 259.667 25.808C259.667 25.936 259.63 26 259.555 26H254.131ZM275.825 25.648C275.889 25.648 275.921 25.7067 275.921 25.824C275.921 25.9413 275.889 26 275.825 26H270.305C270.231 26 270.193 25.9413 270.193 25.824C270.193 25.7067 270.231 25.648 270.305 25.648C270.796 25.6267 271.148 25.568 271.361 25.472C271.585 25.3653 271.697 25.2053 271.697 24.992C271.697 24.864 271.628 24.6027 271.489 24.208L270.721 22H266.881C266.444 23.1947 266.183 23.9413 266.097 24.24C266.044 24.3893 266.017 24.544 266.017 24.704C266.017 25.0453 266.167 25.2907 266.465 25.44C266.764 25.5787 267.148 25.648 267.617 25.648C267.692 25.648 267.729 25.7067 267.729 25.824C267.729 25.9413 267.692 26 267.617 26H263.537C263.463 26 263.425 25.9413 263.425 25.824C263.425 25.7067 263.463 25.648 263.537 25.648C263.911 25.648 264.252 25.5413 264.561 25.328C264.881 25.1147 265.137 24.7627 265.329 24.272L269.105 14.288L270.273 13.952C270.38 13.952 270.449 14.0107 270.481 14.128C270.812 15.0987 271.425 16.8853 272.321 19.488C273.217 22.0907 273.767 23.648 273.969 24.16C274.151 24.6293 274.305 24.9653 274.433 25.168C274.572 25.36 274.737 25.488 274.929 25.552C275.132 25.616 275.431 25.648 275.825 25.648ZM270.529 21.424L268.865 16.592L267.089 21.424H270.529ZM279.803 26C279.728 26 279.691 25.936 279.691 25.808C279.691 25.7013 279.728 25.648 279.803 25.648H279.995C280.88 25.648 281.323 25.184 281.323 24.256V15.648C281.323 15.2853 281.216 15.024 281.003 14.864C280.8 14.6933 280.518 14.608 280.155 14.608C280.091 14.608 279.995 14.6187 279.867 14.64C279.334 14.736 278.774 14.9973 278.187 15.424C277.6 15.8507 277.168 16.2667 276.891 16.672C276.848 16.736 276.795 16.768 276.731 16.768C276.71 16.768 276.678 16.7573 276.635 16.736C276.56 16.6933 276.523 16.6507 276.523 16.608C276.523 16.576 276.534 16.5227 276.555 16.448L277.435 14.16H287.611L287.963 15.072L288.475 16.448C288.507 16.5227 288.523 16.576 288.523 16.608C288.523 16.6507 288.48 16.6933 288.395 16.736C288.352 16.7573 288.32 16.768 288.299 16.768C288.246 16.768 288.198 16.736 288.155 16.672C287.888 16.2667 287.456 15.8507 286.859 15.424C286.262 14.9973 285.702 14.736 285.179 14.64C285.051 14.6187 284.95 14.608 284.875 14.608C284.523 14.608 284.24 14.6933 284.027 14.864C283.824 15.024 283.723 15.2853 283.723 15.648V24.256C283.723 25.184 284.166 25.648 285.051 25.648H285.227C285.302 25.648 285.339 25.7013 285.339 25.808C285.339 25.936 285.302 26 285.227 26H279.803ZM301.497 25.648C301.561 25.648 301.593 25.7067 301.593 25.824C301.593 25.9413 301.561 26 301.497 26H295.977C295.902 26 295.865 25.9413 295.865 25.824C295.865 25.7067 295.902 25.648 295.977 25.648C296.468 25.6267 296.82 25.568 297.033 25.472C297.257 25.3653 297.369 25.2053 297.369 24.992C297.369 24.864 297.3 24.6027 297.161 24.208L296.393 22H292.553C292.116 23.1947 291.854 23.9413 291.769 24.24C291.716 24.3893 291.689 24.544 291.689 24.704C291.689 25.0453 291.838 25.2907 292.137 25.44C292.436 25.5787 292.82 25.648 293.289 25.648C293.364 25.648 293.401 25.7067 293.401 25.824C293.401 25.9413 293.364 26 293.289 26H289.209C289.134 26 289.097 25.9413 289.097 25.824C289.097 25.7067 289.134 25.648 289.209 25.648C289.582 25.648 289.924 25.5413 290.233 25.328C290.553 25.1147 290.809 24.7627 291.001 24.272L294.777 14.288L295.945 13.952C296.052 13.952 296.121 14.0107 296.153 14.128C296.484 15.0987 297.097 16.8853 297.993 19.488C298.889 22.0907 299.438 23.648 299.641 24.16C299.822 24.6293 299.977 24.9653 300.105 25.168C300.244 25.36 300.409 25.488 300.601 25.552C300.804 25.616 301.102 25.648 301.497 25.648ZM296.201 21.424L294.537 16.592L292.761 21.424H296.201ZM302.611 26C302.568 26 302.536 25.984 302.515 25.952C302.504 25.92 302.499 25.872 302.499 25.808C302.499 25.6907 302.536 25.632 302.611 25.632H302.803C303.176 25.632 303.491 25.5413 303.747 25.36C304.003 25.168 304.131 24.8 304.131 24.256V15.888C304.131 14.9707 303.688 14.512 302.803 14.512H302.611C302.568 14.512 302.536 14.496 302.515 14.464C302.504 14.432 302.499 14.384 302.499 14.32C302.499 14.2133 302.536 14.16 302.611 14.16H308.035C308.11 14.16 308.147 14.2187 308.147 14.336C308.147 14.4533 308.11 14.512 308.035 14.512H307.859C306.963 14.512 306.515 14.9707 306.515 15.888V24.512C306.515 24.896 306.627 25.152 306.851 25.28C307.086 25.408 307.448 25.488 307.939 25.52L308.291 25.536L308.723 25.52C309.662 25.4773 310.467 25.184 311.139 24.64C311.811 24.0853 312.403 23.4453 312.915 22.72C312.947 22.6773 312.99 22.656 313.043 22.656C313.075 22.656 313.112 22.6667 313.155 22.688C313.23 22.72 313.267 22.7627 313.267 22.816L313.251 22.896L312.803 24.096C312.408 25.1627 312.174 25.7973 312.099 26H302.611Z" fill="white"></path><path d="M149.778 54.336C148.21 54.336 146.707 54.1307 145.27 53.72C143.832 53.2907 142.675 52.74 141.798 52.068L143.338 48.652C144.178 49.2493 145.167 49.744 146.306 50.136C147.463 50.5093 148.63 50.696 149.806 50.696C150.702 50.696 151.42 50.612 151.962 50.444C152.522 50.2573 152.932 50.0053 153.194 49.688C153.455 49.3707 153.586 49.0067 153.586 48.596C153.586 48.0733 153.38 47.6627 152.97 47.364C152.559 47.0467 152.018 46.7947 151.346 46.608C150.674 46.4027 149.927 46.216 149.106 46.048C148.303 45.8613 147.491 45.6373 146.67 45.376C145.867 45.1147 145.13 44.7787 144.458 44.368C143.786 43.9573 143.235 43.416 142.806 42.744C142.395 42.072 142.19 41.2133 142.19 40.168C142.19 39.048 142.488 38.0307 143.086 37.116C143.702 36.1827 144.616 35.4453 145.83 34.904C147.062 34.344 148.602 34.064 150.45 34.064C151.682 34.064 152.895 34.2133 154.09 34.512C155.284 34.792 156.339 35.2213 157.254 35.8L155.854 39.244C154.939 38.7213 154.024 38.3387 153.11 38.096C152.195 37.8347 151.299 37.704 150.422 37.704C149.544 37.704 148.826 37.8067 148.266 38.012C147.706 38.2173 147.304 38.488 147.062 38.824C146.819 39.1413 146.698 39.5147 146.698 39.944C146.698 40.448 146.903 40.8587 147.314 41.176C147.724 41.4747 148.266 41.7173 148.938 41.904C149.61 42.0907 150.347 42.2773 151.15 42.464C151.971 42.6507 152.783 42.8653 153.586 43.108C154.407 43.3507 155.154 43.6773 155.826 44.088C156.498 44.4987 157.039 45.04 157.45 45.712C157.879 46.384 158.094 47.2333 158.094 48.26C158.094 49.3613 157.786 50.3693 157.17 51.284C156.554 52.1987 155.63 52.936 154.398 53.496C153.184 54.056 151.644 54.336 149.778 54.336ZM165.365 42.296H174.801V45.824H165.365V42.296ZM165.701 50.36H176.369V54H161.193V34.4H176.005V38.04H165.701V50.36ZM179.978 54V34.4H188.462C190.217 34.4 191.729 34.6893 192.998 35.268C194.268 35.828 195.248 36.64 195.938 37.704C196.629 38.768 196.974 40.0373 196.974 41.512C196.974 42.968 196.629 44.228 195.938 45.292C195.248 46.3373 194.268 47.14 192.998 47.7C191.729 48.26 190.217 48.54 188.462 48.54H182.498L184.514 46.552V54H179.978ZM192.438 54L187.538 46.888H192.382L197.338 54H192.438ZM184.514 47.056L182.498 44.928H188.21C189.61 44.928 190.656 44.6293 191.346 44.032C192.037 43.416 192.382 42.576 192.382 41.512C192.382 40.4293 192.037 39.5893 191.346 38.992C190.656 38.3947 189.61 38.096 188.21 38.096H182.498L184.514 35.94V47.056ZM206.448 54L197.992 34.4H202.892L210.284 51.76H207.4L214.904 34.4H219.412L210.928 54H206.448ZM221.049 54V34.4H225.585V54H221.049ZM239.616 54.336C238.104 54.336 236.695 54.0933 235.388 53.608C234.1 53.104 232.98 52.3947 232.028 51.48C231.076 50.5653 230.329 49.492 229.788 48.26C229.265 47.028 229.004 45.6747 229.004 44.2C229.004 42.7253 229.265 41.372 229.788 40.14C230.329 38.908 231.076 37.8347 232.028 36.92C232.999 36.0053 234.128 35.3053 235.416 34.82C236.704 34.316 238.113 34.064 239.644 34.064C241.343 34.064 242.873 34.3627 244.236 34.96C245.617 35.5387 246.775 36.3973 247.708 37.536L244.796 40.224C244.124 39.4587 243.377 38.8893 242.556 38.516C241.735 38.124 240.839 37.928 239.868 37.928C238.953 37.928 238.113 38.0773 237.348 38.376C236.583 38.6747 235.92 39.104 235.36 39.664C234.8 40.224 234.361 40.8867 234.044 41.652C233.745 42.4173 233.596 43.2667 233.596 44.2C233.596 45.1333 233.745 45.9827 234.044 46.748C234.361 47.5133 234.8 48.176 235.36 48.736C235.92 49.296 236.583 49.7253 237.348 50.024C238.113 50.3227 238.953 50.472 239.868 50.472C240.839 50.472 241.735 50.2853 242.556 49.912C243.377 49.52 244.124 48.932 244.796 48.148L247.708 50.836C246.775 51.9747 245.617 52.8427 244.236 53.44C242.873 54.0373 241.333 54.336 239.616 54.336ZM250.771 54V34.4H255.307V54H250.771ZM269.479 54.336C267.929 54.336 266.492 54.084 265.167 53.58C263.86 53.076 262.721 52.3667 261.751 51.452C260.799 50.5373 260.052 49.464 259.511 48.232C258.988 47 258.727 45.656 258.727 44.2C258.727 42.744 258.988 41.4 259.511 40.168C260.052 38.936 260.808 37.8627 261.779 36.948C262.749 36.0333 263.888 35.324 265.195 34.82C266.501 34.316 267.92 34.064 269.451 34.064C271 34.064 272.419 34.316 273.707 34.82C275.013 35.324 276.143 36.0333 277.095 36.948C278.065 37.8627 278.821 38.936 279.363 40.168C279.904 41.3813 280.175 42.7253 280.175 44.2C280.175 45.656 279.904 47.0093 279.363 48.26C278.821 49.492 278.065 50.5653 277.095 51.48C276.143 52.376 275.013 53.076 273.707 53.58C272.419 54.084 271.009 54.336 269.479 54.336ZM269.451 50.472C270.328 50.472 271.131 50.3227 271.859 50.024C272.605 49.7253 273.259 49.296 273.819 48.736C274.379 48.176 274.808 47.5133 275.107 46.748C275.424 45.9827 275.583 45.1333 275.583 44.2C275.583 43.2667 275.424 42.4173 275.107 41.652C274.808 40.8867 274.379 40.224 273.819 39.664C273.277 39.104 272.633 38.6747 271.887 38.376C271.14 38.0773 270.328 37.928 269.451 37.928C268.573 37.928 267.761 38.0773 267.015 38.376C266.287 38.6747 265.643 39.104 265.083 39.664C264.523 40.224 264.084 40.8867 263.767 41.652C263.468 42.4173 263.319 43.2667 263.319 44.2C263.319 45.1147 263.468 45.964 263.767 46.748C264.084 47.5133 264.513 48.176 265.055 48.736C265.615 49.296 266.268 49.7253 267.015 50.024C267.761 50.3227 268.573 50.472 269.451 50.472ZM290.024 54.336C288.456 54.336 286.953 54.1307 285.516 53.72C284.078 53.2907 282.921 52.74 282.044 52.068L283.584 48.652C284.424 49.2493 285.413 49.744 286.552 50.136C287.709 50.5093 288.876 50.696 290.052 50.696C290.948 50.696 291.666 50.612 292.208 50.444C292.768 50.2573 293.178 50.0053 293.44 49.688C293.701 49.3707 293.832 49.0067 293.832 48.596C293.832 48.0733 293.626 47.6627 293.216 47.364C292.805 47.0467 292.264 46.7947 291.592 46.608C290.92 46.4027 290.173 46.216 289.352 46.048C288.549 45.8613 287.737 45.6373 286.916 45.376C286.113 45.1147 285.376 44.7787 284.704 44.368C284.032 43.9573 283.481 43.416 283.052 42.744C282.641 42.072 282.436 41.2133 282.436 40.168C282.436 39.048 282.734 38.0307 283.332 37.116C283.948 36.1827 284.862 35.4453 286.076 34.904C287.308 34.344 288.848 34.064 290.696 34.064C291.928 34.064 293.141 34.2133 294.336 34.512C295.53 34.792 296.585 35.2213 297.5 35.8L296.1 39.244C295.185 38.7213 294.27 38.3387 293.356 38.096C292.441 37.8347 291.545 37.704 290.668 37.704C289.79 37.704 289.072 37.8067 288.512 38.012C287.952 38.2173 287.55 38.488 287.308 38.824C287.065 39.1413 286.944 39.5147 286.944 39.944C286.944 40.448 287.149 40.8587 287.56 41.176C287.97 41.4747 288.512 41.7173 289.184 41.904C289.856 42.0907 290.593 42.2773 291.396 42.464C292.217 42.6507 293.029 42.8653 293.832 43.108C294.653 43.3507 295.4 43.6773 296.072 44.088C296.744 44.4987 297.285 45.04 297.696 45.712C298.125 46.384 298.34 47.2333 298.34 48.26C298.34 49.3613 298.032 50.3693 297.416 51.284C296.8 52.1987 295.876 52.936 294.644 53.496C293.43 54.056 291.89 54.336 290.024 54.336ZM309.369 54V34.4H318.273C320.401 34.4 322.277 34.8107 323.901 35.632C325.525 36.4347 326.794 37.564 327.709 39.02C328.624 40.476 329.081 42.2027 329.081 44.2C329.081 46.1787 328.624 47.9053 327.709 49.38C326.794 50.836 325.525 51.9747 323.901 52.796C322.277 53.5987 320.401 54 318.273 54H309.369ZM313.905 50.276H318.049C319.356 50.276 320.485 50.0333 321.437 49.548C322.408 49.044 323.154 48.3347 323.677 47.42C324.218 46.5053 324.489 45.432 324.489 44.2C324.489 42.9493 324.218 41.876 323.677 40.98C323.154 40.0653 322.408 39.3653 321.437 38.88C320.485 38.376 319.356 38.124 318.049 38.124H313.905V50.276ZM336.674 42.296H346.11V45.824H336.674V42.296ZM337.01 50.36H347.678V54H332.502V34.4H347.314V38.04H337.01V50.36Z" fill="white"></path><path d="M140.762 82L149.498 62.4H153.978L162.742 82H157.982L150.814 64.696H152.606L145.41 82H140.762ZM145.13 77.8L146.334 74.356H156.414L157.646 77.8H145.13ZM164.775 82V62.4H169.311V78.304H179.139V82H164.775ZM181.674 82V62.4H186.21V82H181.674ZM190.861 82V62.4H194.613L202.957 76.232H200.969L209.173 62.4H212.897L212.953 82H208.697L208.669 68.924H209.453L202.901 79.928H200.857L194.165 68.924H195.117V82H190.861ZM221.775 70.296H231.211V73.824H221.775V70.296ZM222.111 78.36H232.779V82H217.603V62.4H232.415V66.04H222.111V78.36ZM236.388 82V62.4H240.14L251.704 76.512H249.884V62.4H254.364V82H250.64L239.048 67.888H240.868V82H236.388ZM263.062 82V66.096H256.79V62.4H273.87V66.096H267.598V82H263.062ZM285.557 82.336C284.008 82.336 282.57 82.084 281.245 81.58C279.938 81.076 278.8 80.3667 277.829 79.452C276.877 78.5373 276.13 77.464 275.589 76.232C275.066 75 274.805 73.656 274.805 72.2C274.805 70.744 275.066 69.4 275.589 68.168C276.13 66.936 276.886 65.8627 277.857 64.948C278.828 64.0333 279.966 63.324 281.273 62.82C282.58 62.316 283.998 62.064 285.529 62.064C287.078 62.064 288.497 62.316 289.785 62.82C291.092 63.324 292.221 64.0333 293.173 64.948C294.144 65.8627 294.9 66.936 295.441 68.168C295.982 69.3813 296.253 70.7253 296.253 72.2C296.253 73.656 295.982 75.0093 295.441 76.26C294.9 77.492 294.144 78.5653 293.173 79.48C292.221 80.376 291.092 81.076 289.785 81.58C288.497 82.084 287.088 82.336 285.557 82.336ZM285.529 78.472C286.406 78.472 287.209 78.3227 287.937 78.024C288.684 77.7253 289.337 77.296 289.897 76.736C290.457 76.176 290.886 75.5133 291.185 74.748C291.502 73.9827 291.661 73.1333 291.661 72.2C291.661 71.2667 291.502 70.4173 291.185 69.652C290.886 68.8867 290.457 68.224 289.897 67.664C289.356 67.104 288.712 66.6747 287.965 66.376C287.218 66.0773 286.406 65.928 285.529 65.928C284.652 65.928 283.84 66.0773 283.093 66.376C282.365 66.6747 281.721 67.104 281.161 67.664C280.601 68.224 280.162 68.8867 279.845 69.652C279.546 70.4173 279.397 71.2667 279.397 72.2C279.397 73.1147 279.546 73.964 279.845 74.748C280.162 75.5133 280.592 76.176 281.133 76.736C281.693 77.296 282.346 77.7253 283.093 78.024C283.84 78.3227 284.652 78.472 285.529 78.472ZM306.102 82.336C304.534 82.336 303.031 82.1307 301.594 81.72C300.157 81.2907 298.999 80.74 298.122 80.068L299.662 76.652C300.502 77.2493 301.491 77.744 302.63 78.136C303.787 78.5093 304.954 78.696 306.13 78.696C307.026 78.696 307.745 78.612 308.286 78.444C308.846 78.2573 309.257 78.0053 309.518 77.688C309.779 77.3707 309.91 77.0067 309.91 76.596C309.91 76.0733 309.705 75.6627 309.294 75.364C308.883 75.0467 308.342 74.7947 307.67 74.608C306.998 74.4027 306.251 74.216 305.43 74.048C304.627 73.8613 303.815 73.6373 302.994 73.376C302.191 73.1147 301.454 72.7787 300.782 72.368C300.11 71.9573 299.559 71.416 299.13 70.744C298.719 70.072 298.514 69.2133 298.514 68.168C298.514 67.048 298.813 66.0307 299.41 65.116C300.026 64.1827 300.941 63.4453 302.154 62.904C303.386 62.344 304.926 62.064 306.774 62.064C308.006 62.064 309.219 62.2133 310.414 62.512C311.609 62.792 312.663 63.2213 313.578 63.8L312.178 67.244C311.263 66.7213 310.349 66.3387 309.434 66.096C308.519 65.8347 307.623 65.704 306.746 65.704C305.869 65.704 305.15 65.8067 304.59 66.012C304.03 66.2173 303.629 66.488 303.386 66.824C303.143 67.1413 303.022 67.5147 303.022 67.944C303.022 68.448 303.227 68.8587 303.638 69.176C304.049 69.4747 304.59 69.7173 305.262 69.904C305.934 70.0907 306.671 70.2773 307.474 70.464C308.295 70.6507 309.107 70.8653 309.91 71.108C310.731 71.3507 311.478 71.6773 312.15 72.088C312.822 72.4987 313.363 73.04 313.774 73.712C314.203 74.384 314.418 75.2333 314.418 76.26C314.418 77.3613 314.11 78.3693 313.494 79.284C312.878 80.1987 311.954 80.936 310.722 81.496C309.509 82.056 307.969 82.336 306.102 82.336ZM330.319 82V73.992L331.355 76.736L322.731 62.4H327.547L334.155 73.404H331.383L338.019 62.4H342.471L333.847 76.736L334.855 73.992V82H330.319ZM352.299 82V62.4H356.051L367.615 76.512H365.795V62.4H370.275V82H366.551L354.959 67.888H356.779V82H352.299ZM383.62 82.336C380.839 82.336 378.664 81.5613 377.096 80.012C375.528 78.4627 374.744 76.2507 374.744 73.376V62.4H379.28V73.208C379.28 75.0747 379.663 76.4187 380.428 77.24C381.193 78.0613 382.267 78.472 383.648 78.472C385.029 78.472 386.103 78.0613 386.868 77.24C387.633 76.4187 388.016 75.0747 388.016 73.208V62.4H392.496V73.376C392.496 76.2507 391.712 78.4627 390.144 80.012C388.576 81.5613 386.401 82.336 383.62 82.336ZM400.71 82V66.096H394.438V62.4H411.518V66.096H405.246V82H400.71ZM413.959 82V62.4H422.443C424.197 62.4 425.709 62.6893 426.979 63.268C428.248 63.828 429.228 64.64 429.919 65.704C430.609 66.768 430.955 68.0373 430.955 69.512C430.955 70.968 430.609 72.228 429.919 73.292C429.228 74.3373 428.248 75.14 426.979 75.7C425.709 76.26 424.197 76.54 422.443 76.54H416.479L418.495 74.552V82H413.959ZM426.419 82L421.519 74.888H426.363L431.319 82H426.419ZM418.495 75.056L416.479 72.928H422.191C423.591 72.928 424.636 72.6293 425.327 72.032C426.017 71.416 426.363 70.576 426.363 69.512C426.363 68.4293 426.017 67.5893 425.327 66.992C424.636 66.3947 423.591 66.096 422.191 66.096H416.479L418.495 63.94V75.056ZM434.549 82V62.4H439.085V82H434.549ZM453.116 82.336C451.604 82.336 450.195 82.0933 448.888 81.608C447.6 81.104 446.48 80.3947 445.528 79.48C444.576 78.5653 443.829 77.492 443.288 76.26C442.765 75.028 442.504 73.6747 442.504 72.2C442.504 70.7253 442.765 69.372 443.288 68.14C443.829 66.908 444.576 65.8347 445.528 64.92C446.499 64.0053 447.628 63.3053 448.916 62.82C450.204 62.316 451.613 62.064 453.144 62.064C454.843 62.064 456.373 62.3627 457.736 62.96C459.117 63.5387 460.275 64.3973 461.208 65.536L458.296 68.224C457.624 67.4587 456.877 66.8893 456.056 66.516C455.235 66.124 454.339 65.928 453.368 65.928C452.453 65.928 451.613 66.0773 450.848 66.376C450.083 66.6747 449.42 67.104 448.86 67.664C448.3 68.224 447.861 68.8867 447.544 69.652C447.245 70.4173 447.096 71.2667 447.096 72.2C447.096 73.1333 447.245 73.9827 447.544 74.748C447.861 75.5133 448.3 76.176 448.86 76.736C449.42 77.296 450.083 77.7253 450.848 78.024C451.613 78.3227 452.453 78.472 453.368 78.472C454.339 78.472 455.235 78.2853 456.056 77.912C456.877 77.52 457.624 76.932 458.296 76.148L461.208 78.836C460.275 79.9747 459.117 80.8427 457.736 81.44C456.373 82.0373 454.833 82.336 453.116 82.336ZM464.271 82V62.4H468.807V82H464.271ZM482.979 82.336C481.429 82.336 479.992 82.084 478.667 81.58C477.36 81.076 476.221 80.3667 475.251 79.452C474.299 78.5373 473.552 77.464 473.011 76.232C472.488 75 472.227 73.656 472.227 72.2C472.227 70.744 472.488 69.4 473.011 68.168C473.552 66.936 474.308 65.8627 475.279 64.948C476.249 64.0333 477.388 63.324 478.695 62.82C480.001 62.316 481.42 62.064 482.951 62.064C484.5 62.064 485.919 62.316 487.207 62.82C488.513 63.324 489.643 64.0333 490.595 64.948C491.565 65.8627 492.321 66.936 492.863 68.168C493.404 69.3813 493.675 70.7253 493.675 72.2C493.675 73.656 493.404 75.0093 492.863 76.26C492.321 77.492 491.565 78.5653 490.595 79.48C489.643 80.376 488.513 81.076 487.207 81.58C485.919 82.084 484.509 82.336 482.979 82.336ZM482.951 78.472C483.828 78.472 484.631 78.3227 485.359 78.024C486.105 77.7253 486.759 77.296 487.319 76.736C487.879 76.176 488.308 75.5133 488.607 74.748C488.924 73.9827 489.083 73.1333 489.083 72.2C489.083 71.2667 488.924 70.4173 488.607 69.652C488.308 68.8867 487.879 68.224 487.319 67.664C486.777 67.104 486.133 66.6747 485.387 66.376C484.64 66.0773 483.828 65.928 482.951 65.928C482.073 65.928 481.261 66.0773 480.515 66.376C479.787 66.6747 479.143 67.104 478.583 67.664C478.023 68.224 477.584 68.8867 477.267 69.652C476.968 70.4173 476.819 71.2667 476.819 72.2C476.819 73.1147 476.968 73.964 477.267 74.748C477.584 75.5133 478.013 76.176 478.555 76.736C479.115 77.296 479.768 77.7253 480.515 78.024C481.261 78.3227 482.073 78.472 482.951 78.472ZM480.403 60.804L484.183 56.772H488.887L483.819 60.804H480.403ZM497.084 82V62.4H500.836L512.4 76.512H510.58V62.4H515.06V82H511.336L499.744 67.888H501.564V82H497.084Z" fill="white"></path></svg>